<svg width="20" height="20" viewBox="0 0 20 20" fill="none" xmlns="http://www.w3.org/2000/svg">
<g filter="url(#filter0_d_1_136)">
<path d="M17.3333 0.666626H3.33333C2.19999 0.666626 1.33333 1.53329 1.33333 2.66663V16.6666C1.33333 17.8 2.19999 18.6666 3.33333 18.6666H10.3333V11.6666H8.33333V9.19996H10.3333V7.13329C10.3333 4.99996 11.5333 3.46663 14.0667 3.46663H15.8667V6.06663H14.6667C13.6667 6.06663 13.2667 6.79996 13.2667 7.53329V9.19996H15.8667L15.3333 11.6666H13.3333V18.6666H17.3333C18.4667 18.6666 19.3333 17.8 19.3333 16.6666V2.66663C19.3333 1.53329 18.4667 0.666626 17.3333 0.666626Z" fill="black"/>
</g>
<defs>
<filter id="filter0_d_1_136" x="-2.66667" y="0.666626" width="26" height="26" filterUnits="userSpaceOnUse" color-interpolation-filters="sRGB">
<feFlood flood-opacity="0" result="BackgroundImageFix"/>
<feColorMatrix in="SourceAlpha" type="matrix" values="0 0 0 0 0 0 0 0 0 0 0 0 0 0 0 0 0 0 127 0" result="hardAlpha"/>
<feOffset dy="4"/>
<feGaussianBlur stdDeviation="2"/>
<feComposite in2="hardAlpha" operator="out"/>
<feColorMatrix type="matrix" values="0 0 0 0 0 0 0 0 0 0 0 0 0 0 0 0 0 0 0.25 0"/>
<feBlend mode="normal" in2="BackgroundImageFix" result="effect1_dropShadow_1_136"/>
<feBlend mode="normal" in="SourceGraphic" in2="effect1_dropShadow_1_136" result="shape"/>
</filter>
</defs>
</svg>
